<svg xmlns="http://www.w3.org/2000/svg" xmlns:xlink="http://www.w3.org/1999/xlink" width="178" height="178" viewBox="0 0 178 178">
  <defs>
    <clipPath id="clip-path">
      <rect id="Rectángulo_280" data-name="Rectángulo 280" width="77.899" height="80.615" fill="#3ba5a1"/>
    </clipPath>
  </defs>
  <g id="Grupo_523" data-name="Grupo 523" transform="translate(-464 -3758)">
    <g id="Grupo_521" data-name="Grupo 521" transform="translate(514 3807)">
      <g id="Grupo_520" data-name="Grupo 520" clip-path="url(#clip-path)">
        <path id="Trazado_979" data-name="Trazado 979" d="M35.108,38.078a19.041,19.041,0,1,1,6.2-1.045,19.067,19.067,0,0,1-6.2,1.045m0-35.523A16.51,16.51,0,1,0,42.3,4.223a16.505,16.505,0,0,0-7.194-1.668" transform="translate(-13.323 0)" fill="#3ba5a1"/>
        <path id="Trazado_980" data-name="Trazado 980" d="M105.489,122.728a7.686,7.686,0,0,1-6.971-4.471,1.277,1.277,0,0,1,2.321-1.066,5.112,5.112,0,0,0,9.292-4.267,1.277,1.277,0,0,1,2.321-1.066,7.674,7.674,0,0,1-6.962,10.869" transform="translate(-81.65 -92.199)" fill="#3ba5a1"/>
        <path id="Trazado_981" data-name="Trazado 981" d="M81.741,18.064a4.76,4.76,0,0,1-.71-.053c-2.11-.319-3.442-1.9-3.167-3.75a1.277,1.277,0,1,1,2.526.375c-.1.661.908.833,1.023.85a1.848,1.848,0,0,0,2.236-1.561,3,3,0,0,0-.846-2.587,3.655,3.655,0,0,0-3.4-.6,1.277,1.277,0,0,1-.549-2.494,6.143,6.143,0,0,1,5.7,1.23,5.545,5.545,0,0,1,1.623,4.839,4.341,4.341,0,0,1-4.431,3.75" transform="translate(-64.579 -6.672)" fill="#3ba5a1"/>
        <path id="Trazado_982" data-name="Trazado 982" d="M82.123,101.66a2.093,2.093,0,1,1-2.093-2.093,2.093,2.093,0,0,1,2.093,2.093" transform="translate(-64.669 -82.617)" fill="#3ba5a1"/>
        <path id="Trazado_983" data-name="Trazado 983" d="M153.152,70.312a2.093,2.093,0,1,1-2.093-2.093,2.093,2.093,0,0,1,2.093,2.093" transform="translate(-123.606 -56.605)" fill="#3ba5a1"/>
        <path id="Trazado_984" data-name="Trazado 984" d="M9.678,99.008a1.272,1.272,0,0,1-.87-.342C1.877,92.215-1.053,83.68.336,73.984A38.35,38.35,0,0,1,4.548,61.242a1.277,1.277,0,0,1,2.206,1.287,36.441,36.441,0,0,0-3.9,11.9C1.6,83.35,4.187,90.876,10.548,96.8a1.277,1.277,0,0,1-.87,2.211" transform="translate(0 -50.291)" fill="#3ba5a1"/>
        <path id="Trazado_985" data-name="Trazado 985" d="M87.871,109.322q-.323,0-.649,0c-8.349-.042-15.552-2.082-21.4-6.061A34.773,34.773,0,0,1,54.482,90.113a48.98,48.98,0,0,1-5.131-18.92,1.277,1.277,0,0,1,2.553-.078,47.247,47.247,0,0,0,4.89,17.909,32.209,32.209,0,0,0,10.5,12.151c5.415,3.67,12.125,5.551,19.944,5.59,7.369.078,18.024-.95,25.471-10.723A18.1,18.1,0,0,0,115.754,80.7c-1.883-8.116-8.384-15.48-17.835-20.206-8.245-4.123-10.239-7.923-12.35-11.946-1.838-3.5-3.738-7.125-10.363-11.617a1.277,1.277,0,1,1,1.433-2.113c7.155,4.852,9.3,8.939,11.191,12.544,2,3.807,3.722,7.095,11.231,10.849,10.134,5.067,17.125,13.054,19.18,21.913a20.609,20.609,0,0,1-3.5,17.468,28.212,28.212,0,0,1-13.525,9.761,40.845,40.845,0,0,1-13.349,1.971" transform="translate(-40.949 -28.707)" fill="#3ba5a1"/>
        <path id="Trazado_986" data-name="Trazado 986" d="M184.925,207.114a1.273,1.273,0,0,1-.932-.4,31.869,31.869,0,0,0-14.254-8.559,53,53,0,0,0-15.819-2.064,76.112,76.112,0,0,0-18.069,2.37,1.277,1.277,0,1,1-.7-2.455,77.423,77.423,0,0,1,18.748-2.468,55.5,55.5,0,0,1,16.584,2.174,34.384,34.384,0,0,1,15.374,9.256,1.277,1.277,0,0,1-.931,2.15" transform="translate(-111.374 -160.584)" fill="#3ba5a1"/>
      </g>
    </g>
    <g id="Grupo_448" data-name="Grupo 448" transform="translate(-407 -542)">
      <g id="Elipse_34" data-name="Elipse 34" transform="translate(871 4300)" fill="none" stroke="#3ba5a1" stroke-width="2">
        <circle cx="89" cy="89" r="89" stroke="none"/>
        <circle cx="89" cy="89" r="88" fill="none"/>
      </g>
    </g>
  </g>
</svg>
